<?xml version="1.0" encoding="utf-8"?>
<!-- Generator: Adobe Illustrator 23.0.1, SVG Export Plug-In . SVG Version: 6.00 Build 0)  -->
<svg version="1.1" xmlns="http://www.w3.org/2000/svg" xmlns:xlink="http://www.w3.org/1999/xlink" x="0px" y="0px"
	 viewBox="0 0 841.89 595.28" style="enable-background:new 0 0 841.89 595.28;" xml:space="preserve">
<style type="text/css">
	.st0{display:none;}
	.st1{display:inline;fill:#FFDC51;}
	.st2{display:inline;fill:#D5B942;}
	.st3{display:inline;}
	.st4{fill:#161F55;}
	.st5{display:none;fill:#161F55;}
	.st6{fill:#FFFFFF;}
	.st7{display:inline;fill:#50B795;}
	.st8{display:inline;fill:#2A4294;}
	.st9{display:inline;fill:#CC1417;}
	.st10{display:inline;fill:#161F55;}
	.st11{display:inline;fill:#0CA338;}
	.st12{display:inline;fill:#C7DABF;}
	.st13{display:inline;fill:#8DC796;}
	.st14{display:inline;fill:#007254;}
	.st15{display:inline;fill:#17936F;}
	.st16{display:inline;fill:#FFFFFF;}
	.st17{display:inline;fill:#F08354;}
	.st18{display:inline;fill:#134B5F;}
	.st19{display:inline;fill:#48AC34;}
	.st20{display:inline;fill:#FCED56;}
	.st21{fill:#C7DABF;}
	.st22{fill:#134B5F;}
</style>
<g id="Layer_1" class="st0">
	<path class="st1" d="M-786.89,77.5c-31.08,3.48-32.32,29.62-32.32,29.62c-0.5,35.34,30.33,37.26,30.33,37.26h76.53l-48.49-66.88
		H-786.89z"/>
	<polygon class="st2" points="-649.16,110.85 -676.01,77.5 -760.84,77.5 -712.35,144.37 -675.76,144.37 	"/>
	<g class="st3">
		<path class="st4" d="M-639.29,107.12h2.82c1.62-7.79,7.83-13.89,15.68-15.36v-2.82C-630.16,90.47-637.6,97.8-639.29,107.12z"/>
		<path class="st4" d="M-636.67,114.11h-2.79c1.3,9.82,8.94,17.66,18.67,19.25v-2.82C-629,129-635.42,122.4-636.67,114.11z"/>
		<path class="st4" d="M-674.49,76.34l-0.01,0.01v-0.01h-30.07c-1.57-9.15-7.36-17.22-15.95-21.16c-0.38-0.18-0.77-0.34-1.16-0.5
			c-2.99-1.21-6.21-1.74-9.43-1.74h-7.36v3.61h8.87c1.32,0,2.64,0.15,3.91,0.51c0.1,0.03,0.19,0.06,0.29,0.08
			c8.96,2.63,15.37,10.23,17.14,19.19h-50.13V59.16c0-11.04,7.05-21.09,17.65-24.2c0.1-0.03,0.19-0.06,0.29-0.08
			c1.27-0.36,2.59-0.51,3.91-0.51h8.87v-3.61h-7.36c-3.22,0-6.45,0.52-9.43,1.74c-0.39,0.16-0.78,0.33-1.16,0.5
			c-10.13,4.65-16.39,15.04-16.39,26.19v17.15h-24.48c-18.75,0-34.01,15.25-34.01,34.01v1.18c0,18.75,15.25,34.01,34.01,34.01
			h111.98v-0.01l0.02,0.01l27.54-34.68L-674.49,76.34z M-675.88,142.78h-110.61c-17.23,0-31.25-14.02-31.25-31.25v-1.18
			c0-17.23,14.02-31.25,31.25-31.25h110.61l25.36,31.76L-675.88,142.78z"/>
	</g>
	<g class="st3">
		<circle class="st5" cx="-760.17" cy="110.85" r="10.12"/>
		<path class="st6" d="M-760.17,123.24c-6.83,0-12.39-5.56-12.39-12.39s5.56-12.39,12.39-12.39c6.83,0,12.39,5.56,12.39,12.39
			S-753.33,123.24-760.17,123.24z M-760.17,102.99c-4.33,0-7.86,3.52-7.86,7.86s3.52,7.86,7.86,7.86c4.33,0,7.86-3.52,7.86-7.86
			S-755.84,102.99-760.17,102.99z"/>
	</g>
	<g class="st3">
		<circle class="st5" cx="-706.5" cy="110.85" r="10.12"/>
		<path class="st6" d="M-706.5,123.24c-6.83,0-12.39-5.56-12.39-12.39s5.56-12.39,12.39-12.39c6.83,0,12.39,5.56,12.39,12.39
			S-699.67,123.24-706.5,123.24z M-706.5,102.99c-4.33,0-7.86,3.52-7.86,7.86s3.52,7.86,7.86,7.86c4.33,0,7.86-3.52,7.86-7.86
			S-702.17,102.99-706.5,102.99z"/>
	</g>
	<path class="st7" d="M-786.89,219.17c-31.08,3.48-32.32,29.62-32.32,29.62c-0.5,35.34,30.33,37.26,30.33,37.26h76.53l-48.49-66.88
		H-786.89z"/>
	<polygon class="st8" points="-649.16,252.52 -676.01,219.17 -760.84,219.17 -712.35,286.05 -675.76,286.05 	"/>
	<g class="st3">
		<path class="st4" d="M-639.29,248.79h2.82c1.62-7.79,7.83-13.89,15.68-15.36v-2.82C-630.16,232.14-637.6,239.47-639.29,248.79z"/>
		<path class="st4" d="M-636.67,255.78h-2.79c1.3,9.82,8.94,17.66,18.67,19.25v-2.82C-629,270.68-635.42,264.08-636.67,255.78z"/>
		<path class="st4" d="M-674.49,218.01l-0.01,0.01v-0.01h-30.07c-1.57-9.15-7.36-17.22-15.95-21.16c-0.38-0.18-0.77-0.34-1.16-0.5
			c-2.99-1.21-6.21-1.74-9.43-1.74h-7.36v3.61h8.87c1.32,0,2.64,0.15,3.91,0.51c0.1,0.03,0.19,0.06,0.29,0.08
			c8.96,2.63,15.37,10.23,17.14,19.19h-50.13v-17.18c0-11.04,7.05-21.09,17.65-24.2c0.1-0.03,0.19-0.06,0.29-0.08
			c1.27-0.36,2.59-0.51,3.91-0.51h8.87v-3.61h-7.36c-3.22,0-6.45,0.52-9.43,1.74c-0.39,0.16-0.78,0.33-1.16,0.5
			c-10.13,4.65-16.39,15.04-16.39,26.19v17.15h-24.48c-18.75,0-34.01,15.25-34.01,34.01v1.18c0,18.75,15.25,34.01,34.01,34.01
			h111.98v-0.01l0.02,0.01l27.54-34.68L-674.49,218.01z M-675.88,284.45h-110.61c-17.23,0-31.25-14.02-31.25-31.25v-1.18
			c0-17.23,14.02-31.25,31.25-31.25h110.61l25.36,31.76L-675.88,284.45z"/>
	</g>
	<path class="st1" d="M-760.17,240.13c-6.83,0-12.39,5.56-12.39,12.39s5.56,12.39,12.39,12.39c6.83,0,12.39-5.56,12.39-12.39
		S-753.33,240.13-760.17,240.13z"/>
	<path class="st1" d="M-706.5,240.13C-706.5,240.13-706.5,240.13-706.5,240.13C-706.5,240.13-706.5,240.13-706.5,240.13
		c-3.42,0-6.51,1.39-8.76,3.63c-2.24,2.24-3.63,5.34-3.63,8.76s1.39,6.51,3.63,8.76c2.24,2.24,5.34,3.63,8.76,3.63c0,0,0,0,0,0
		s0,0,0,0c6.83,0,12.39-5.56,12.39-12.39S-699.66,240.13-706.5,240.13z"/>
	<path class="st9" d="M-786.89,357.83c-31.08,3.48-32.32,29.62-32.32,29.62c-0.5,35.34,30.33,37.26,30.33,37.26h76.53l-48.49-66.88
		H-786.89z"/>
	<polygon class="st9" points="-649.16,391.18 -676.01,357.83 -760.84,357.83 -712.35,424.7 -675.76,424.7 	"/>
	<g class="st3">
		<path class="st4" d="M-639.29,387.45h2.82c1.62-7.79,7.83-13.89,15.68-15.36v-2.82C-630.16,370.8-637.6,378.13-639.29,387.45z"/>
		<path class="st4" d="M-636.67,394.44h-2.79c1.3,9.82,8.94,17.66,18.67,19.25v-2.82C-629,409.33-635.42,402.74-636.67,394.44z"/>
		<path class="st4" d="M-674.49,356.67l-0.01,0.01v-0.01h-30.07c-1.57-9.15-7.36-17.22-15.95-21.16c-0.38-0.18-0.77-0.34-1.16-0.5
			c-2.99-1.21-6.21-1.74-9.43-1.74h-7.36v3.61h8.87c1.32,0,2.64,0.15,3.91,0.51c0.1,0.03,0.19,0.06,0.29,0.08
			c8.96,2.63,15.37,10.23,17.14,19.19h-50.13v-17.18c0-11.04,7.05-21.09,17.65-24.2c0.1-0.03,0.19-0.06,0.29-0.08
			c1.27-0.36,2.59-0.51,3.91-0.51h8.87v-3.61h-7.36c-3.22,0-6.45,0.52-9.43,1.74c-0.39,0.16-0.78,0.33-1.16,0.5
			c-10.13,4.65-16.39,15.04-16.39,26.19v17.15h-24.48c-18.75,0-34.01,15.25-34.01,34.01v1.18c0,18.75,15.25,34.01,34.01,34.01
			h111.98v-0.01l0.02,0.01l27.54-34.68L-674.49,356.67z M-675.88,423.11h-110.61c-17.23,0-31.25-14.02-31.25-31.25v-1.18
			c0-17.23,14.02-31.25,31.25-31.25h110.61l25.36,31.76L-675.88,423.11z"/>
	</g>
	<path class="st10" d="M-760.17,378.79c-6.83,0-12.39,5.56-12.39,12.39s5.56,12.39,12.39,12.39c6.83,0,12.39-5.56,12.39-12.39
		S-753.33,378.79-760.17,378.79z"/>
	<path class="st10" d="M-706.5,378.79C-706.5,378.79-706.5,378.79-706.5,378.79C-706.5,378.79-706.5,378.79-706.5,378.79
		c-3.42,0-6.51,1.39-8.76,3.63c-2.24,2.24-3.63,5.34-3.63,8.76c0,3.42,1.39,6.51,3.63,8.76c2.24,2.24,5.34,3.63,8.76,3.63
		c0,0,0,0,0,0s0,0,0,0c6.83,0,12.39-5.56,12.39-12.39S-699.66,378.79-706.5,378.79z"/>
	<path class="st11" d="M-507.19,78.29c-31.08,3.48-32.32,29.62-32.32,29.62c-0.5,35.34,30.33,37.26,30.33,37.26h76.53l-48.49-66.88
		H-507.19z"/>
	<polygon class="st12" points="-369.46,111.65 -396.31,78.29 -481.14,78.29 -432.65,145.17 -396.06,145.17 	"/>
	<g class="st3">
		<path d="M-359.59,107.91h2.82c1.62-7.79,7.83-13.89,15.68-15.36v-2.82C-350.47,91.27-357.9,98.6-359.59,107.91z"/>
		<path d="M-356.97,114.9h-2.79c1.3,9.82,8.94,17.66,18.67,19.25v-2.82C-349.3,129.8-355.72,123.2-356.97,114.9z"/>
		<path d="M-394.79,77.14l-0.01,0.01v-0.01h-30.07c-1.57-9.15-7.36-17.22-15.95-21.16c-0.38-0.18-0.77-0.34-1.16-0.5
			c-2.99-1.21-6.21-1.74-9.43-1.74h-7.36v3.61h8.87c1.32,0,2.64,0.15,3.91,0.51c0.1,0.03,0.19,0.06,0.29,0.08
			c8.96,2.63,15.37,10.23,17.14,19.19h-50.13V59.96c0-11.04,7.05-21.09,17.65-24.2c0.1-0.03,0.19-0.06,0.29-0.08
			c1.27-0.36,2.59-0.51,3.91-0.51h8.87v-3.61h-7.36c-3.22,0-6.45,0.52-9.43,1.74c-0.39,0.16-0.78,0.33-1.16,0.5
			c-10.13,4.65-16.39,15.04-16.39,26.19v17.15h-24.48c-18.75,0-34.01,15.25-34.01,34.01v1.18c0,18.75,15.25,34.01,34.01,34.01
			h111.98v-0.01l0.02,0.01l27.54-34.68L-394.79,77.14z M-396.18,143.58h-110.61c-17.23,0-31.25-14.02-31.25-31.25v-1.18
			c0-17.23,14.02-31.25,31.25-31.25h110.61l25.36,31.76L-396.18,143.58z"/>
	</g>
	<path class="st3" d="M-480.47,99.26c-6.83,0-12.39,5.56-12.39,12.39s5.56,12.39,12.39,12.39s12.39-5.56,12.39-12.39
		S-473.64,99.26-480.47,99.26z"/>
	<path class="st3" d="M-426.8,99.26C-426.8,99.26-426.8,99.26-426.8,99.26C-426.8,99.26-426.8,99.26-426.8,99.26
		c-3.42,0-6.51,1.39-8.76,3.63c-2.24,2.24-3.63,5.34-3.63,8.76c0,3.42,1.39,6.51,3.63,8.76c2.24,2.24,5.34,3.63,8.76,3.63
		c0,0,0,0,0,0c0,0,0,0,0,0c6.83,0,12.39-5.56,12.39-12.39S-419.97,99.26-426.8,99.26z"/>
	<path class="st13" d="M-507.19,229.48c-31.08,3.48-32.32,29.62-32.32,29.62c-0.5,35.34,30.33,37.26,30.33,37.26h76.53l-48.49-66.88
		H-507.19z"/>
	<polygon class="st13" points="-369.46,262.84 -396.31,229.48 -481.14,229.48 -432.65,296.36 -396.06,296.36 	"/>
	<g class="st3">
		<path d="M-359.59,259.1h2.82c1.62-7.79,7.83-13.89,15.68-15.36v-2.82C-350.47,242.46-357.9,249.79-359.59,259.1z"/>
		<path d="M-356.97,266.09h-2.79c1.3,9.82,8.94,17.66,18.67,19.25v-2.82C-349.3,280.99-355.72,274.39-356.97,266.09z"/>
		<path d="M-394.79,228.33l-0.01,0.01v-0.01h-30.07c-1.57-9.15-7.36-17.22-15.95-21.16c-0.38-0.18-0.77-0.34-1.16-0.5
			c-2.99-1.21-6.21-1.74-9.43-1.74h-7.36v3.61h8.87c1.32,0,2.64,0.15,3.91,0.51c0.1,0.03,0.19,0.06,0.29,0.08
			c8.96,2.63,15.37,10.23,17.14,19.19h-50.13v-17.18c0-11.04,7.05-21.09,17.65-24.2c0.1-0.03,0.19-0.06,0.29-0.08
			c1.27-0.36,2.59-0.51,3.91-0.51h8.87v-3.61h-7.36c-3.22,0-6.45,0.52-9.43,1.74c-0.39,0.16-0.78,0.33-1.16,0.5
			c-10.13,4.65-16.39,15.04-16.39,26.19v17.15h-24.48c-18.75,0-34.01,15.25-34.01,34.01v1.18c0,18.75,15.25,34.01,34.01,34.01
			h111.98v-0.01l0.02,0.01l27.54-34.68L-394.79,228.33z M-396.18,294.77h-110.61c-17.23,0-31.25-14.02-31.25-31.25v-1.18
			c0-17.23,14.02-31.25,31.25-31.25h110.61l25.36,31.76L-396.18,294.77z"/>
	</g>
	<path class="st3" d="M-480.47,250.45c-6.83,0-12.39,5.56-12.39,12.39s5.56,12.39,12.39,12.39s12.39-5.56,12.39-12.39
		S-473.64,250.45-480.47,250.45z"/>
	<path class="st3" d="M-426.8,250.45C-426.8,250.45-426.8,250.45-426.8,250.45C-426.8,250.45-426.8,250.45-426.8,250.45
		c-3.42,0-6.51,1.39-8.76,3.63c-2.24,2.24-3.63,5.34-3.63,8.76c0,3.42,1.39,6.51,3.63,8.76c2.24,2.24,5.34,3.63,8.76,3.63
		c0,0,0,0,0,0c0,0,0,0,0,0c6.83,0,12.39-5.56,12.39-12.39S-419.97,250.45-426.8,250.45z"/>
	<path class="st14" d="M-507.19,357.83c-31.08,3.48-32.32,29.62-32.32,29.62c-0.5,35.34,30.33,37.26,30.33,37.26h76.53l-48.49-66.88
		H-507.19z"/>
	<polygon class="st15" points="-369.46,391.18 -396.31,357.83 -481.14,357.83 -432.65,424.7 -396.06,424.7 	"/>
	<g class="st3">
		<path d="M-359.59,387.45h2.82c1.62-7.79,7.83-13.89,15.68-15.36v-2.82C-350.47,370.8-357.9,378.13-359.59,387.45z"/>
		<path d="M-356.97,394.44h-2.79c1.3,9.82,8.94,17.66,18.67,19.25v-2.82C-349.3,409.33-355.72,402.74-356.97,394.44z"/>
		<path d="M-394.79,356.67l-0.01,0.01v-0.01h-30.07c-1.57-9.15-7.36-17.22-15.95-21.16c-0.38-0.18-0.77-0.34-1.16-0.5
			c-2.99-1.21-6.21-1.74-9.43-1.74h-7.36v3.61h8.87c1.32,0,2.64,0.15,3.91,0.51c0.1,0.03,0.19,0.06,0.29,0.08
			c8.96,2.63,15.37,10.23,17.14,19.19h-50.13v-17.18c0-11.04,7.05-21.09,17.65-24.2c0.1-0.03,0.19-0.06,0.29-0.08
			c1.27-0.36,2.59-0.51,3.91-0.51h8.87v-3.61h-7.36c-3.22,0-6.45,0.52-9.43,1.74c-0.39,0.16-0.78,0.33-1.16,0.5
			c-10.13,4.65-16.39,15.04-16.39,26.19v17.15h-24.48c-18.75,0-34.01,15.25-34.01,34.01v1.18c0,18.75,15.25,34.01,34.01,34.01
			h111.98v-0.01l0.02,0.01l27.54-34.68L-394.79,356.67z M-396.18,423.11h-110.61c-17.23,0-31.25-14.02-31.25-31.25v-1.18
			c0-17.23,14.02-31.25,31.25-31.25h110.61l25.36,31.76L-396.18,423.11z"/>
	</g>
	<path class="st16" d="M-480.47,378.79c-6.83,0-12.39,5.56-12.39,12.39s5.56,12.39,12.39,12.39s12.39-5.56,12.39-12.39
		S-473.64,378.79-480.47,378.79z"/>
	<path class="st16" d="M-426.8,378.79C-426.8,378.79-426.8,378.79-426.8,378.79C-426.8,378.79-426.8,378.79-426.8,378.79
		c-3.42,0-6.51,1.39-8.76,3.63c-2.24,2.24-3.63,5.34-3.63,8.76c0,3.42,1.39,6.51,3.63,8.76c2.24,2.24,5.34,3.63,8.76,3.63
		c0,0,0,0,0,0c0,0,0,0,0,0c6.83,0,12.39-5.56,12.39-12.39S-419.97,378.79-426.8,378.79z"/>
	<path class="st17" d="M-507.19,509.02c-31.08,3.48-32.32,29.62-32.32,29.62c-0.5,35.34,30.33,37.26,30.33,37.26h76.53l-48.49-66.88
		H-507.19z"/>
	<polygon class="st17" points="-369.46,542.37 -396.31,509.02 -481.14,509.02 -432.65,575.9 -396.06,575.9 	"/>
	<g class="st3">
		<path d="M-359.59,538.64h2.82c1.62-7.79,7.83-13.89,15.68-15.36v-2.82C-350.47,521.99-357.9,529.32-359.59,538.64z"/>
		<path d="M-356.97,545.63h-2.79c1.3,9.82,8.94,17.66,18.67,19.25v-2.82C-349.3,560.52-355.72,553.93-356.97,545.63z"/>
		<path d="M-394.79,507.86l-0.01,0.01v-0.01h-30.07c-1.57-9.15-7.36-17.22-15.95-21.16c-0.38-0.18-0.77-0.34-1.16-0.5
			c-2.99-1.21-6.21-1.74-9.43-1.74h-7.36v3.61h8.87c1.32,0,2.64,0.15,3.91,0.51c0.1,0.03,0.19,0.06,0.29,0.08
			c8.96,2.63,15.37,10.23,17.14,19.19h-50.13v-17.18c0-11.04,7.05-21.09,17.65-24.2c0.1-0.03,0.19-0.06,0.29-0.08
			c1.27-0.36,2.59-0.51,3.91-0.51h8.87v-3.61h-7.36c-3.22,0-6.45,0.52-9.43,1.74c-0.39,0.16-0.78,0.33-1.16,0.5
			c-10.13,4.65-16.39,15.04-16.39,26.19v17.15h-24.48c-18.75,0-34.01,15.25-34.01,34.01v1.18c0,18.75,15.25,34.01,34.01,34.01
			h111.98v-0.01l0.02,0.01l27.54-34.68L-394.79,507.86z M-396.18,574.3h-110.61c-17.23,0-31.25-14.02-31.25-31.25v-1.18
			c0-17.23,14.02-31.25,31.25-31.25h110.61l25.36,31.76L-396.18,574.3z"/>
	</g>
	<path class="st10" d="M-480.47,529.98c-6.83,0-12.39,5.56-12.39,12.39c0,6.83,5.56,12.39,12.39,12.39s12.39-5.56,12.39-12.39
		C-468.08,535.54-473.64,529.98-480.47,529.98z"/>
	<path class="st10" d="M-426.8,529.98C-426.8,529.98-426.8,529.98-426.8,529.98C-426.8,529.98-426.8,529.98-426.8,529.98
		c-3.42,0-6.51,1.39-8.76,3.63c-2.24,2.24-3.63,5.34-3.63,8.76c0,3.42,1.39,6.51,3.63,8.76c2.24,2.24,5.34,3.63,8.76,3.63
		c0,0,0,0,0,0c0,0,0,0,0,0c6.83,0,12.39-5.56,12.39-12.39C-414.41,535.54-419.97,529.98-426.8,529.98z"/>
	<path class="st18" d="M-229.48,575.9h76.53h36.59l26.6-33.52h-169.97C-258.09,574.1-229.48,575.9-229.48,575.9z"/>
	<path class="st18" d="M-201.44,509.02h-26.05c-31.08,3.48-32.32,29.62-32.32,29.62c-0.02,1.29,0.02,2.53,0.08,3.73h169.97
		l-26.85-33.35H-201.44z"/>
	<g class="st3">
		<path d="M-79.9,538.64h2.82c1.62-7.79,7.83-13.89,15.68-15.36v-2.82C-70.77,521.99-78.2,529.32-79.9,538.64z"/>
		<path d="M-77.28,545.63h-2.79c1.3,9.82,8.94,17.66,18.67,19.25v-2.82C-69.6,560.52-76.02,553.93-77.28,545.63z"/>
		<path d="M-115.09,507.86l-0.01,0.01v-0.01h-30.07c-1.57-9.15-7.36-17.22-15.95-21.16c-0.38-0.18-0.77-0.34-1.16-0.5
			c-2.99-1.21-6.21-1.74-9.43-1.74h-7.36v3.61h8.87c1.32,0,2.64,0.15,3.91,0.51c0.1,0.03,0.19,0.06,0.29,0.08
			c8.96,2.63,15.37,10.23,17.14,19.19h-50.13v-17.18c0-11.04,7.05-21.09,17.65-24.2c0.1-0.03,0.19-0.06,0.29-0.08
			c1.27-0.36,2.59-0.51,3.91-0.51h8.87v-3.61h-7.36c-3.22,0-6.45,0.52-9.43,1.74c-0.39,0.16-0.78,0.33-1.16,0.5
			c-10.13,4.65-16.39,15.04-16.39,26.19v17.15h-24.48c-18.75,0-34.01,15.25-34.01,34.01v1.18c0,18.75,15.25,34.01,34.01,34.01
			h111.98v-0.01l0.02,0.01l27.54-34.68L-115.09,507.86z M-116.48,574.3h-110.61c-17.23,0-31.25-14.02-31.25-31.25v-1.18
			c0-17.23,14.02-31.25,31.25-31.25h110.61l25.36,31.76L-116.48,574.3z"/>
	</g>
	<path class="st16" d="M-200.77,529.98c-6.83,0-12.39,5.56-12.39,12.39c0,6.83,5.56,12.39,12.39,12.39
		c6.83,0,12.39-5.56,12.39-12.39C-188.38,535.54-193.94,529.98-200.77,529.98z"/>
	<path class="st16" d="M-147.1,529.98C-147.1,529.98-147.1,529.98-147.1,529.98C-147.1,529.98-147.1,529.98-147.1,529.98
		c-3.42,0-6.51,1.39-8.76,3.63c-2.24,2.24-3.63,5.34-3.63,8.76c0,3.42,1.39,6.51,3.63,8.76c2.24,2.24,5.34,3.63,8.76,3.63
		c0,0,0,0,0,0c0,0,0,0,0,0c6.83,0,12.39-5.56,12.39-12.39C-134.71,535.54-140.27,529.98-147.1,529.98z"/>
	<path class="st19" d="M-242.56,145.97h76.53h36.59l26.6-33.52h-169.97C-271.17,144.17-242.56,145.97-242.56,145.97z"/>
	<path class="st19" d="M-214.52,79.09h-26.05c-31.08,3.48-32.32,29.62-32.32,29.62c-0.02,1.29,0.02,2.53,0.08,3.73h169.97
		l-26.85-33.35H-214.52z"/>
	<g class="st3">
		<path d="M-92.98,108.71h2.82c1.62-7.79,7.83-13.89,15.68-15.36v-2.82C-83.85,92.06-91.28,99.39-92.98,108.71z"/>
		<path d="M-90.36,115.7h-2.79c1.3,9.82,8.94,17.66,18.67,19.25v-2.82C-82.68,130.6-89.1,124-90.36,115.7z"/>
		<path d="M-128.18,77.93l-0.01,0.01v-0.01h-30.07c-1.57-9.15-7.36-17.22-15.95-21.16c-0.38-0.18-0.77-0.34-1.16-0.5
			c-2.99-1.21-6.21-1.74-9.43-1.74h-7.36v3.61h8.87c1.32,0,2.64,0.15,3.91,0.51c0.1,0.03,0.19,0.06,0.29,0.08
			c8.96,2.63,15.37,10.23,17.14,19.19h-50.13V60.75c0-11.04,7.05-21.09,17.65-24.2c0.1-0.03,0.19-0.06,0.29-0.08
			c1.27-0.36,2.59-0.51,3.91-0.51h8.87v-3.61h-7.36c-3.22,0-6.45,0.52-9.43,1.74c-0.39,0.16-0.78,0.33-1.16,0.5
			c-10.13,4.65-16.39,15.04-16.39,26.19v17.15h-24.48c-18.75,0-34.01,15.25-34.01,34.01v1.18c0,18.75,15.25,34.01,34.01,34.01
			h111.98v-0.01l0.02,0.01l27.54-34.68L-128.18,77.93z M-129.56,144.37h-110.61c-17.23,0-31.25-14.02-31.25-31.25v-1.18
			c0-17.23,14.02-31.25,31.25-31.25h110.61l25.36,31.76L-129.56,144.37z"/>
	</g>
	<path class="st16" d="M-213.85,100.05c-6.83,0-12.39,5.56-12.39,12.39s5.56,12.39,12.39,12.39c6.83,0,12.39-5.56,12.39-12.39
		S-207.02,100.05-213.85,100.05z"/>
	<path class="st16" d="M-160.18,100.05C-160.18,100.05-160.18,100.05-160.18,100.05C-160.18,100.05-160.18,100.05-160.18,100.05
		c-3.42,0-6.51,1.39-8.76,3.63c-2.24,2.24-3.63,5.34-3.63,8.76c0,3.42,1.39,6.51,3.63,8.76c2.24,2.24,5.34,3.63,8.76,3.63
		c0,0,0,0,0,0c0,0,0,0,0,0c6.83,0,12.39-5.56,12.39-12.39S-153.35,100.05-160.18,100.05z"/>
	<path class="st12" d="M-235.22,438.79h76.53h36.59l26.6-33.52h-169.97C-263.82,436.99-235.22,438.79-235.22,438.79z"/>
	<path class="st18" d="M-207.18,371.91h-26.05c-31.08,3.48-32.32,29.62-32.32,29.62c-0.02,1.29,0.02,2.53,0.08,3.73H-95.5
		l-26.85-33.35H-207.18z"/>
	<g class="st3">
		<path d="M-85.63,401.53h2.82c1.62-7.79,7.83-13.89,15.68-15.36v-2.82C-76.5,384.88-83.94,392.21-85.63,401.53z"/>
		<path d="M-83.01,408.52h-2.79c1.3,9.82,8.94,17.66,18.67,19.25v-2.82C-75.34,423.41-81.76,416.82-83.01,408.52z"/>
		<path d="M-120.83,370.75l-0.01,0.01v-0.01h-30.07c-1.57-9.15-7.36-17.22-15.95-21.16c-0.38-0.18-0.77-0.34-1.16-0.5
			c-2.99-1.21-6.21-1.74-9.43-1.74h-7.36v3.61h8.87c1.32,0,2.64,0.15,3.91,0.51c0.1,0.03,0.19,0.06,0.29,0.08
			c8.96,2.63,15.37,10.23,17.14,19.19h-50.13v-17.18c0-11.04,7.05-21.09,17.65-24.2c0.1-0.03,0.19-0.06,0.29-0.08
			c1.27-0.36,2.59-0.51,3.91-0.51h8.87v-3.61h-7.36c-3.22,0-6.45,0.52-9.43,1.74c-0.39,0.16-0.78,0.33-1.16,0.5
			c-10.13,4.65-16.39,15.04-16.39,26.19v17.15h-24.48c-18.75,0-34.01,15.25-34.01,34.01v1.18c0,18.75,15.25,34.01,34.01,34.01
			h111.98v-0.01l0.02,0.01l27.54-34.68L-120.83,370.75z M-122.22,437.19h-110.61c-17.23,0-31.25-14.02-31.25-31.25v-1.18
			c0-17.23,14.02-31.25,31.25-31.25h110.61l25.36,31.76L-122.22,437.19z"/>
	</g>
	<path class="st20" d="M-235.22,295.85h76.53h36.59l26.6-33.52h-169.97C-263.82,294.06-235.22,295.85-235.22,295.85z"/>
	<path class="st10" d="M-207.18,228.97h-26.05c-31.08,3.48-32.32,29.62-32.32,29.62c-0.02,1.29,0.02,2.53,0.08,3.73H-95.5
		l-26.85-33.35H-207.18z"/>
	<g class="st3">
		<path d="M-85.63,258.59h2.82c1.62-7.79,7.83-13.89,15.68-15.36v-2.82C-76.5,241.95-83.94,249.27-85.63,258.59z"/>
		<path d="M-83.01,265.58h-2.79c1.3,9.82,8.94,17.66,18.67,19.25v-2.82C-75.34,280.48-81.76,273.88-83.01,265.58z"/>
		<path d="M-120.83,227.81l-0.01,0.01v-0.01h-30.07c-1.57-9.15-7.36-17.22-15.95-21.16c-0.38-0.18-0.77-0.34-1.16-0.5
			c-2.99-1.21-6.21-1.74-9.43-1.74h-7.36v3.61h8.87c1.32,0,2.64,0.15,3.91,0.51c0.1,0.03,0.19,0.06,0.29,0.08
			c8.96,2.63,15.37,10.23,17.14,19.19h-50.13v-17.18c0-11.04,7.05-21.09,17.65-24.2c0.1-0.03,0.19-0.06,0.29-0.08
			c1.27-0.36,2.59-0.51,3.91-0.51h8.87v-3.61h-7.36c-3.22,0-6.45,0.52-9.43,1.74c-0.39,0.16-0.78,0.33-1.16,0.5
			c-10.13,4.65-16.39,15.04-16.39,26.19v17.15h-24.48c-18.75,0-34.01,15.25-34.01,34.01V263c0,18.75,15.25,34.01,34.01,34.01h111.98
			v-0.01l0.02,0.01l27.54-34.68L-120.83,227.81z M-122.22,294.25h-110.61c-17.23,0-31.25-14.02-31.25-31.25v-1.18
			c0-17.23,14.02-31.25,31.25-31.25h110.61l25.36,31.76L-122.22,294.25z"/>
	</g>
	<path class="st16" d="M-780.6,497.64c-31.08,3.48-32.32,29.62-32.32,29.62c-0.5,35.34,30.33,37.26,30.33,37.26h76.53l-48.49-66.88
		H-780.6z"/>
	<polygon class="st9" points="-642.87,530.99 -669.72,497.64 -754.55,497.64 -706.06,564.52 -669.47,564.52 	"/>
	<g class="st3">
		<path class="st4" d="M-633,527.26h2.82c1.62-7.79,7.83-13.89,15.68-15.36v-2.82C-623.87,510.61-631.31,517.94-633,527.26z"/>
		<path class="st4" d="M-630.38,534.25h-2.79c1.3,9.82,8.94,17.66,18.67,19.25v-2.82C-622.71,549.15-629.13,542.55-630.38,534.25z"
			/>
		<path class="st4" d="M-668.2,496.48l-0.01,0.01v-0.01h-30.07c-1.57-9.15-7.36-17.22-15.95-21.16c-0.38-0.18-0.77-0.34-1.16-0.5
			c-2.99-1.21-6.21-1.74-9.43-1.74h-7.36v3.61h8.87c1.32,0,2.64,0.15,3.91,0.51c0.1,0.03,0.19,0.06,0.29,0.08
			c8.96,2.63,15.37,10.23,17.14,19.19h-50.13V479.3c0-11.04,7.05-21.09,17.65-24.2c0.1-0.03,0.19-0.06,0.29-0.08
			c1.27-0.36,2.59-0.51,3.91-0.51h8.87v-3.61h-7.36c-3.22,0-6.45,0.52-9.43,1.74c-0.39,0.16-0.78,0.33-1.16,0.5
			c-10.13,4.65-16.39,15.04-16.39,26.19v17.15h-24.48c-18.75,0-34.01,15.25-34.01,34.01v1.18c0,18.75,15.25,34.01,34.01,34.01
			h111.98v-0.01l0.02,0.01l27.54-34.68L-668.2,496.48z M-669.59,562.92H-780.2c-17.23,0-31.25-14.02-31.25-31.25v-1.18
			c0-17.23,14.02-31.25,31.25-31.25h110.61l25.36,31.76L-669.59,562.92z"/>
	</g>
	<path class="st9" d="M-753.88,518.6c-6.83,0-12.39,5.56-12.39,12.39c0,6.83,5.56,12.39,12.39,12.39c6.83,0,12.39-5.56,12.39-12.39
		C-741.49,524.16-747.05,518.6-753.88,518.6z"/>
	<path class="st16" d="M-700.21,518.6C-700.21,518.6-700.21,518.6-700.21,518.6C-700.21,518.6-700.21,518.6-700.21,518.6
		c-3.42,0-6.51,1.39-8.76,3.63c-2.24,2.24-3.63,5.34-3.63,8.76c0,3.42,1.39,6.51,3.63,8.76c2.24,2.24,5.34,3.63,8.76,3.63
		c0,0,0,0,0,0s0,0,0,0c6.83,0,12.39-5.56,12.39-12.39C-687.82,524.16-693.38,518.6-700.21,518.6z"/>
	<text transform="matrix(1 0 0 1 -447.1867 266.142)" style="font-family:'MyriadPro-Regular'; font-size:12px;">c6dabf</text>
	<g class="st3">
		<path d="M-206.51,417.65c6.83,0,12.39-5.56,12.39-12.39h-24.78C-218.9,412.1-213.34,417.65-206.51,417.65z"/>
		<path d="M-206.51,392.87c-6.83,0-12.39,5.56-12.39,12.39h24.78C-194.12,398.43-199.67,392.87-206.51,392.87z"/>
		<path d="M-161.6,414.02c2.24,2.24,5.34,3.63,8.76,3.63c0,0,0,0,0,0c0,0,0,0,0,0c6.83,0,12.39-5.56,12.39-12.39h-24.78
			C-165.23,408.68-163.84,411.78-161.6,414.02z"/>
		<path d="M-152.84,392.87C-152.84,392.87-152.84,392.87-152.84,392.87C-152.84,392.87-152.84,392.87-152.84,392.87
			c-3.42,0-6.51,1.39-8.76,3.63c-2.24,2.24-3.63,5.34-3.63,8.76h24.78C-140.45,398.43-146.01,392.87-152.84,392.87z"/>
	</g>
	<g class="st3">
		<path d="M-218.9,262.33c0,6.83,5.56,12.39,12.39,12.39c6.83,0,12.39-5.56,12.39-12.39v0L-218.9,262.33L-218.9,262.33z"/>
		<path d="M-206.51,249.93c-6.83,0-12.39,5.56-12.39,12.39h24.78C-194.12,255.49-199.67,249.93-206.51,249.93z"/>
		<path d="M-165.23,262.33L-165.23,262.33c0,3.42,1.39,6.51,3.63,8.76c2.24,2.24,5.34,3.63,8.76,3.63c0,0,0,0,0,0c0,0,0,0,0,0
			c6.83,0,12.39-5.56,12.39-12.39v0H-165.23z"/>
		<path d="M-152.84,249.93C-152.84,249.93-152.84,249.93-152.84,249.93C-152.84,249.93-152.84,249.93-152.84,249.93
			c-3.42,0-6.51,1.39-8.76,3.63c-2.24,2.24-3.63,5.34-3.63,8.76h24.78C-140.45,255.49-146.01,249.93-152.84,249.93z"/>
	</g>
</g>
<g id="Layer_2">
	<path class="st21" d="M363.84,338.9h76.53h36.59l26.6-33.52H333.59C335.24,337.11,363.84,338.9,363.84,338.9z"/>
	<path class="st22" d="M391.89,272.02h-26.05c-31.08,3.48-32.32,29.62-32.32,29.62c-0.02,1.29,0.02,2.53,0.08,3.73h169.97
		l-26.85-33.35H391.89z"/>
	<g>
		<path class="st21" d="M513.43,301.64h2.82c1.62-7.79,7.83-13.89,15.68-15.36v-2.82C522.56,285,515.13,292.33,513.43,301.64z"/>
		<path class="st21" d="M516.05,308.63h-2.79c1.3,9.82,8.94,17.66,18.67,19.25v-2.82C523.73,323.53,517.31,316.93,516.05,308.63z"/>
		<path class="st21" d="M478.23,270.86l-0.01,0.01v-0.01h-30.07c-1.57-9.15-7.36-17.22-15.95-21.16c-0.38-0.18-0.77-0.34-1.16-0.5
			c-2.99-1.21-6.21-1.74-9.43-1.74h-7.36v3.61h8.87c1.32,0,2.64,0.15,3.91,0.51c0.1,0.03,0.19,0.06,0.29,0.08
			c8.96,2.63,15.37,10.23,17.14,19.19h-50.13v-17.18c0-11.04,7.05-21.09,17.65-24.2c0.1-0.03,0.19-0.06,0.29-0.08
			c1.27-0.36,2.59-0.51,3.91-0.51h8.87v-3.61h-7.36c-3.22,0-6.45,0.52-9.43,1.74c-0.39,0.16-0.78,0.33-1.16,0.5
			c-10.13,4.65-16.39,15.04-16.39,26.19v17.15h-24.48c-18.75,0-34.01,15.25-34.01,34.01v1.18c0,18.75,15.25,34.01,34.01,34.01
			h111.98v-0.01l0.02,0.01l27.54-34.68L478.23,270.86z M476.84,337.3H366.24c-17.23,0-31.25-14.02-31.25-31.25v-1.18
			c0-17.23,14.02-31.25,31.25-31.25h110.61l25.36,31.76L476.84,337.3z"/>
	</g>
	<g>
		<path class="st6" d="M392.56,317.77c6.83,0,12.39-5.56,12.39-12.39h-24.78C380.16,312.21,385.72,317.77,392.56,317.77z"/>
		<path class="st6" d="M392.56,292.98c-6.83,0-12.39,5.56-12.39,12.39h24.78C404.95,298.54,399.39,292.98,392.56,292.98z"/>
		<path class="st6" d="M437.47,314.13c2.24,2.24,5.34,3.63,8.76,3.63c0,0,0,0,0,0c0,0,0,0,0,0c6.83,0,12.39-5.56,12.39-12.39h-24.78
			C433.83,308.79,435.22,311.89,437.47,314.13z"/>
		<path class="st6" d="M446.23,292.98C446.23,292.98,446.23,292.98,446.23,292.98C446.23,292.98,446.23,292.98,446.23,292.98
			c-3.42,0-6.51,1.39-8.76,3.63c-2.24,2.24-3.63,5.34-3.63,8.76h24.78C458.62,298.54,453.06,292.98,446.23,292.98z"/>
	</g>
</g>
</svg>
