<?xml version="1.0" encoding="utf-8"?>
<!-- Generator: Adobe Illustrator 23.1.0, SVG Export Plug-In . SVG Version: 6.00 Build 0)  -->
<svg version="1.1" id="Layer_1" xmlns="http://www.w3.org/2000/svg" xmlns:xlink="http://www.w3.org/1999/xlink" x="0px" y="0px"
	 viewBox="0 0 50 50" style="enable-background:new 0 0 50 50;" xml:space="preserve">
<style type="text/css">
	.st0{fill:#C7DABF;}
	.st1{fill:#134B5F;}
	.st2{fill:#C7DABF;stroke:#000000;stroke-width:0.25;stroke-miterlimit:10;}
	.st3{fill:#C8DABF;stroke:#000000;stroke-width:0.25;stroke-miterlimit:10;}
	.st4{fill:#1F2042;}
</style>
<path class="st0" d="M12.72,33.08h14.73h7.04l5.12-6.45H6.9C7.21,32.73,12.72,33.08,12.72,33.08z"/>
<path class="st1" d="M18.12,20.21H13.1c-5.98,0.67-6.22,5.7-6.22,5.7c0,0.25,0,0.49,0.02,0.72h32.72l-5.17-6.42H18.12z"/>
<g>
	<g>
		<path class="st2" d="M41.51,25.91h0.54c0.31-1.5,1.51-2.67,3.02-2.96v-0.54C43.27,22.7,41.84,24.11,41.51,25.91z"/>
		<path class="st3" d="M42.06,26.29h-0.54c-0.24,0-0.41-0.21-0.37-0.44l0,0c0.36-1.96,1.91-3.48,3.87-3.8l0,0
			c0.23-0.04,0.44,0.14,0.44,0.37v0.54c0,0.18-0.13,0.34-0.31,0.37h0c-1.36,0.25-2.44,1.31-2.72,2.66v0
			C42.39,26.16,42.24,26.29,42.06,26.29z"/>
	</g>
	<g>
		<path class="st2" d="M42.02,27.25h-0.54c0.25,1.89,1.72,3.4,3.59,3.71v-0.54C43.5,30.12,42.26,28.85,42.02,27.25z"/>
		<path class="st3" d="M45.45,30.96c0,0.23-0.21,0.41-0.44,0.37l0,0c-2.03-0.33-3.64-1.99-3.91-4.03l0,0
			c-0.03-0.23,0.15-0.43,0.37-0.43h0.54c0.19,0,0.34,0.14,0.37,0.32l0,0c0.22,1.44,1.32,2.58,2.75,2.85l0,0
			c0.18,0.03,0.31,0.19,0.31,0.37V30.96z"/>
	</g>
	<g>
		<path class="st2" d="M34.74,19.98L34.74,19.98L34.74,19.98l-5.79,0c-0.3-1.76-1.42-3.31-3.07-4.07c-0.07-0.03-0.15-0.07-0.22-0.1
			c-0.57-0.23-1.2-0.33-1.82-0.33h-1.42v0.7h1.71c0.25,0,0.51,0.03,0.75,0.1c0.02,0.01,0.04,0.01,0.06,0.02
			c1.73,0.51,2.96,1.97,3.3,3.69h-9.65v-3.31c0-2.13,1.36-4.06,3.4-4.66c0.02-0.01,0.04-0.01,0.06-0.02c0.24-0.07,0.5-0.1,0.75-0.1
			h1.71v-0.7h-1.42c-0.62,0-1.24,0.1-1.82,0.33c-0.08,0.03-0.15,0.06-0.22,0.1c-1.95,0.9-3.16,2.9-3.16,5.04v3.3h-4.71
			c-3.61,0-6.55,2.94-6.55,6.55v0.23c0,3.61,2.94,6.55,6.55,6.55h21.56v0l0,0l5.3-6.68L34.74,19.98z M34.47,32.77H13.18
			c-3.32,0-6.02-2.7-6.02-6.02v-0.23c0-3.32,2.7-6.02,6.02-6.02h21.29l4.88,6.11L34.47,32.77z"/>
		<path class="st3" d="M34.33,33.68H13.18c-3.82,0-6.92-3.1-6.92-6.92v-0.23c0-3.82,3.1-6.92,6.92-6.92h4.34v-2.92
			c0-2.33,1.33-4.44,3.38-5.38c0.08-0.04,0.16-0.07,0.24-0.1c0.59-0.24,1.25-0.36,1.96-0.36h1.07c0.4,0,0.72,0.32,0.72,0.72v0
			c0,0.4-0.32,0.72-0.72,0.72H22.8c-0.23,0-0.45,0.03-0.65,0.08l-0.05,0.01c-1.84,0.54-3.13,2.31-3.13,4.3v2.93h8.79
			c-0.43-1.43-1.52-2.54-2.92-2.96l-0.05-0.01c-0.2-0.06-0.42-0.08-0.65-0.08h-1.36c-0.4,0-0.72-0.32-0.72-0.72v0
			c0-0.4,0.32-0.72,0.72-0.72h1.07c0.71,0,1.37,0.12,1.96,0.36c0.08,0.03,0.16,0.07,0.24,0.1c1.63,0.75,2.82,2.24,3.22,4.04h5.07
			c0.18,0,0.36,0.04,0.53,0.12l0,0c0.17,0.08,0.32,0.2,0.43,0.34l4.6,5.76c0.37,0.46,0.37,1.12,0,1.59l-4.6,5.8
			c-0.11,0.14-0.26,0.26-0.43,0.34l0,0C34.7,33.64,34.51,33.68,34.33,33.68z M13.18,20.89c-3.11,0-5.64,2.52-5.64,5.64v0.23
			c0,3.11,2.52,5.64,5.64,5.64H33.7c0.37,0,0.72-0.17,0.96-0.46l3.58-4.51c0.37-0.47,0.37-1.13,0-1.59l-3.58-4.48
			c-0.23-0.29-0.59-0.46-0.96-0.46H13.18z"/>
	</g>
</g>
<g>
	<path class="st4" d="M16.99,26.63c0,0.69,0.56,1.25,1.25,1.25c0.69,0,1.25-0.56,1.25-1.25c0,0,0,0,0,0L16.99,26.63
		C16.99,26.63,16.99,26.63,16.99,26.63z"/>
	<path class="st4" d="M18.25,25.37c-0.69,0-1.25,0.56-1.25,1.25h2.51C19.5,25.93,18.94,25.37,18.25,25.37z"/>
	<path class="st4" d="M18.25,25.37c0.69,0,1.25,0.56,1.25,1.25h1.13c0-1.32-1.07-2.39-2.39-2.39s-2.38,1.07-2.39,2.39h1.13
		C16.99,25.93,17.55,25.37,18.25,25.37z"/>
	<path class="st4" d="M18.25,29.01c1.32,0,2.39-1.07,2.39-2.39c0,0,0,0,0,0H19.5c0,0,0,0,0,0c0,0.69-0.56,1.25-1.25,1.25
		c-0.69,0-1.25-0.56-1.25-1.25c0,0,0,0,0,0h-1.13c0,0,0,0,0,0C15.86,27.94,16.93,29.01,18.25,29.01z"/>
	<path class="st4" d="M27.69,27.51c0.24,0.24,0.55,0.37,0.89,0.37c0.33,0,0.65-0.13,0.89-0.37c0.24-0.24,0.37-0.55,0.37-0.89
		c0,0,0,0,0,0h-2.51c0,0,0,0,0,0C27.32,26.96,27.45,27.28,27.69,27.51z"/>
	<path class="st4" d="M28.58,25.37c-0.33,0-0.65,0.13-0.88,0.37c-0.24,0.24-0.37,0.55-0.37,0.89h2.51
		C29.83,25.93,29.27,25.37,28.58,25.37z"/>
	<path class="st4" d="M28.58,24.24c-0.66,0-1.25,0.27-1.69,0.7c-0.43,0.43-0.7,1.03-0.7,1.69h1.13c0-0.33,0.13-0.65,0.37-0.89
		c0.24-0.24,0.55-0.37,0.88-0.37c0.69,0,1.25,0.56,1.25,1.25h1.13C30.96,25.31,29.89,24.24,28.58,24.24z"/>
	<path class="st4" d="M29.83,26.63c0,0.33-0.13,0.65-0.37,0.89c-0.24,0.24-0.55,0.37-0.89,0.37c-0.33,0-0.65-0.13-0.89-0.37
		c-0.24-0.24-0.37-0.55-0.37-0.88c0,0,0,0,0,0h-1.13c0,0,0,0,0,0c0,0.66,0.27,1.25,0.7,1.69c0.43,0.43,1.03,0.7,1.69,0.7
		c0.66,0,1.25-0.27,1.69-0.7c0.43-0.43,0.7-1.03,0.7-1.69c0,0,0,0,0,0L29.83,26.63C29.83,26.63,29.83,26.63,29.83,26.63z"/>
</g>
</svg>
